<svg width="200" height="492" viewBox="0 0 200 492" fill="none" xmlns="http://www.w3.org/2000/svg">
<path d="M21.124 343.021V376.163C21.1256 381.914 22.2631 387.608 24.4712 392.918C26.6794 398.228 29.9145 403.049 33.9911 407.105L34.2866 407.39C35.6208 396.521 40.5594 386.412 48.3134 378.68C49.4288 377.559 50.601 376.496 51.8256 375.496V343.021H21.124Z" stroke="#102A44" stroke-width="4" stroke-linejoin="round"/>
<path d="M33.8712 413.276V489.024H131.895V446.768H110.789C95.161 446.736 80.182 440.514 69.1312 429.463C58.0803 418.412 51.8579 403.433 51.8261 387.805V375.496C50.6015 376.496 49.4292 377.559 48.3139 378.68C40.5621 386.41 35.6236 396.514 34.287 407.379C34.0261 409.334 33.8873 411.304 33.8712 413.276V413.276Z" stroke="#102A44" stroke-width="4" stroke-linejoin="round"/>
<path d="M51.1912 261.224C42.4601 264.138 34.8628 269.717 29.4691 277.175C24.0753 284.634 21.1567 293.597 21.1243 302.801V343H51.8258V288.369C51.8295 280.77 53.3162 273.243 56.2024 266.213" stroke="#102A44" stroke-width="4" stroke-linejoin="round"/>
<path d="M51.8256 368.209V387.827C51.8632 403.451 58.0882 418.425 69.1384 429.471C80.1886 440.517 95.1644 446.736 110.789 446.768H145.123V489.078H243.092V424.634C236.926 427.946 230.052 429.72 223.053 429.806C216.055 429.892 209.139 428.286 202.894 425.126C195.642 421.47 189.544 415.879 185.274 408.972C181.004 402.064 178.73 394.109 178.702 385.989V368.209H51.7819H51.8256Z" stroke="#102A44" stroke-width="4" stroke-linejoin="round"/>
<path d="M51.8258 288.369V368.242H178.746V312.67C178.742 304.715 180.922 296.911 185.048 290.109C163.557 299.01 139.946 301.492 117.074 297.255C94.2013 293.018 73.0467 282.243 56.1695 266.235C53.2973 273.261 51.8219 280.779 51.8258 288.369V288.369Z" stroke="#102A44" stroke-width="4" stroke-linejoin="round"/>
<path d="M154.489 159.152C154.486 162.888 155.447 166.562 157.279 169.819C159.111 173.075 161.753 175.804 164.948 177.741C168.143 179.678 171.784 180.758 175.519 180.877C179.253 180.995 182.955 180.148 186.267 178.417C189.579 176.687 192.388 174.131 194.423 170.997C196.458 167.863 197.65 164.258 197.884 160.528C198.117 156.799 197.385 153.073 195.758 149.709C194.13 146.346 191.663 143.459 188.593 141.328H163.822C160.939 143.321 158.584 145.985 156.958 149.089C155.333 152.194 154.485 155.647 154.489 159.152V159.152Z" stroke="#102A44" stroke-width="4" stroke-linejoin="round"/>
<path d="M176.208 168.2C171.211 168.2 167.16 164.149 167.16 159.152C167.16 154.154 171.211 150.103 176.208 150.103C181.205 150.103 185.257 154.154 185.257 159.152C185.257 164.149 181.205 168.2 176.208 168.2Z" stroke="#102A44" stroke-width="4" stroke-linejoin="round"/>
<path d="M150.036 132.214C150.047 134.629 151.013 136.943 152.722 138.65C154.431 140.357 156.745 141.319 159.161 141.328H193.079C195.443 141.246 197.683 140.249 199.327 138.548C200.97 136.847 201.889 134.574 201.889 132.208C201.889 129.843 200.97 127.57 199.327 125.869C197.683 124.167 195.443 123.171 193.079 123.089H159.161C156.744 123.097 154.428 124.061 152.718 125.771C151.009 127.48 150.045 129.796 150.036 132.214V132.214Z" stroke="#102A44" stroke-width="4" stroke-linejoin="round"/>
<path d="M46.7272 158.845C46.6759 162.577 47.5878 166.259 49.3748 169.536C51.1618 172.813 53.7636 175.574 56.9288 177.552C60.0941 179.53 63.716 180.659 67.4447 180.829C71.1733 180.999 74.8828 180.204 78.2149 178.522C81.547 176.84 84.3891 174.328 86.4668 171.227C88.5445 168.126 89.7875 164.542 90.0758 160.82C90.3641 157.099 89.6881 153.366 88.1128 149.982C86.5376 146.598 84.1165 143.678 81.0832 141.503L75.6125 141.426L56.3557 141.153C53.4393 143.103 51.0397 145.731 49.3627 148.813C47.6857 151.895 46.7813 155.337 46.7272 158.845V158.845Z" stroke="#102A44" stroke-width="4" stroke-linejoin="round"/>
<path d="M68.4459 168.2C63.4485 168.2 59.3973 164.149 59.3973 159.152C59.3973 154.154 63.4485 150.103 68.4459 150.103C73.4432 150.103 77.4944 154.154 77.4944 159.152C77.4944 164.149 73.4432 168.2 68.4459 168.2Z" stroke="#102A44" stroke-width="4" stroke-linejoin="round"/>
<path d="M42.8647 131.842C42.8355 134.259 43.7657 136.59 45.4515 138.323C47.1373 140.056 49.4412 141.05 51.8586 141.087L56.3008 141.153L75.5577 141.427L81.0284 141.503L85.6785 141.569H85.7988C88.1646 141.506 90.4133 140.526 92.0704 138.836C93.7275 137.147 94.6633 134.879 94.6803 132.513C94.6973 130.146 93.7943 127.865 92.1617 126.152C90.5291 124.439 88.2947 123.427 85.9301 123.329L52.0117 122.848H51.8914C49.5144 122.884 47.2445 123.843 45.5604 125.521C43.8764 127.199 42.9099 129.465 42.8647 131.842V131.842Z" stroke="#102A44" stroke-width="4" stroke-linejoin="round"/>
<path d="M111.992 219.909C107.333 219.909 103.556 216.132 103.556 211.473C103.556 206.814 107.333 203.037 111.992 203.037C116.651 203.037 120.428 206.814 120.428 211.473C120.428 216.132 116.651 219.909 111.992 219.909Z" stroke="#102A44" stroke-width="4" stroke-linejoin="round"/>
<path d="M132.77 219.91C128.111 219.91 124.334 216.133 124.334 211.474C124.334 206.815 128.111 203.038 132.77 203.038C137.429 203.038 141.206 206.815 141.206 211.474C141.206 216.133 137.429 219.91 132.77 219.91Z" stroke="#102A44" stroke-width="4" stroke-linejoin="round"/>
<path d="M178.702 352.869V386.01C178.702 397.631 183.319 408.775 191.535 416.992C199.752 425.209 210.897 429.825 222.517 429.825C234.138 429.825 245.282 425.209 253.499 416.992C261.716 408.775 266.332 397.631 266.332 386.01V352.869H178.702Z" stroke="#102A44" stroke-width="4" stroke-linejoin="round"/>
<path d="M178.702 312.67V352.869H266.332V312.67C266.303 301.067 261.685 289.946 253.485 281.736C245.285 273.526 234.17 268.893 222.566 268.85C221.297 268.85 220.039 268.905 218.792 269.014C208.795 277.872 197.39 285.002 185.048 290.109C180.906 296.906 178.711 304.711 178.702 312.67V312.67Z" stroke="#102A44" stroke-width="4" stroke-linejoin="round"/>
<path d="M124.324 274.43C141.688 274.43 157.148 266.891 162.848 255.666C163.171 255.019 163.225 254.271 162.998 253.585C162.772 252.898 162.282 252.33 161.638 252.003C160.993 251.676 160.245 251.618 159.558 251.841C158.87 252.064 158.299 252.55 157.968 253.193C153.198 262.624 139.674 268.959 124.324 268.959C108.973 268.959 95.0553 262.34 90.5146 252.854C90.2012 252.199 89.6407 251.696 88.9564 251.455C88.2721 251.214 87.52 251.255 86.8657 251.568C86.2113 251.881 85.7082 252.442 85.4671 253.126C85.226 253.811 85.2667 254.563 85.5801 255.217C91.0836 266.705 106.653 274.43 124.324 274.43Z" fill="#102A44"/>
<path d="M18.5527 159.152V178.846C18.5527 179.229 18.5527 179.623 18.5527 180.006C18.6192 186.54 19.2267 193.058 20.3689 199.493C25.3959 229.032 41.2608 255.634 64.8612 274.096C88.4616 292.558 118.1 301.553 147.981 299.322C177.862 297.091 205.835 283.794 226.432 262.031C247.029 240.268 258.767 211.605 259.351 181.647C259.351 180.706 259.351 179.754 259.351 178.802V159.108C254.737 159.108 250.312 157.275 247.05 154.012C243.787 150.75 241.954 146.325 241.954 141.711V98.2627H59.561C49.6291 98.28 39.8647 95.704 31.2337 90.7897V146.503C31.2337 148.167 30.9055 149.814 30.2678 151.351C29.6301 152.888 28.6955 154.284 27.5175 155.459C26.3396 156.634 24.9414 157.564 23.403 158.198C21.8647 158.832 20.2164 159.156 18.5527 159.152V159.152Z" stroke="#102A44" stroke-width="4" stroke-linejoin="round"/>
<path d="M7.38176 138.494V183.157C7.37929 186.956 8.66082 190.645 11.0184 193.624C13.376 196.603 16.6712 198.698 20.3692 199.569C19.2216 193.102 18.614 186.551 18.5529 179.984C18.5529 179.601 18.5529 179.207 18.5529 178.824V122.662C15.2898 123.833 12.4667 125.982 10.4679 128.814C8.46904 131.647 7.39147 135.027 7.38176 138.494V138.494Z" stroke="#102A44" stroke-width="4" stroke-linejoin="round"/>
<path d="M2.14073 20.6113V40.842C2.11217 55.8849 8.00818 70.3341 18.5528 81.0626V159.151C21.9074 159.151 25.1245 157.819 27.4965 155.447C29.8685 153.075 31.2011 149.858 31.2011 146.503V90.7895C39.832 95.7039 49.5964 98.2798 59.5284 98.2625H241.998V141.755C241.998 146.368 243.831 150.793 247.094 154.056C250.356 157.318 254.781 159.151 259.395 159.151L259.034 91.6101L258.859 59.4424C258.862 51.9 257.379 44.4309 254.494 37.4618C251.61 30.4927 247.381 24.1601 242.049 18.8258C236.716 13.4915 230.385 9.25999 223.417 6.37297C216.449 3.48595 208.981 2 201.438 2H20.7411C18.2976 2 15.8779 2.48148 13.6205 3.41692C11.3631 4.35236 9.31213 5.72343 7.58478 7.45179C5.85743 9.18016 4.48756 11.2319 3.55345 13.4899C2.61933 15.7479 2.13929 18.1678 2.14073 20.6113V20.6113Z" stroke="#102A44" stroke-width="4" stroke-linejoin="round"/>
</svg>
