<svg width="198" height="488" viewBox="0 0 198 488" fill="none" xmlns="http://www.w3.org/2000/svg">
<g opacity="0.3">
<path d="M18.9898 341.141V374.294C18.9914 380.047 20.1293 385.743 22.3382 391.054C24.5471 396.366 27.7834 401.189 31.8614 405.247L32.1569 405.532C33.4917 394.659 38.432 384.547 46.1887 376.811C47.3045 375.69 48.4771 374.627 49.7021 373.626V341.141H18.9898Z" fill="#F2BF99"/>
<path d="M49.0673 259.314C40.3332 262.229 32.7332 267.81 27.3376 275.272C21.9419 282.733 19.0223 291.699 18.9899 300.906V341.119H49.7022V286.47C49.7059 278.867 51.193 271.338 54.0803 264.305" fill="#C22F33"/>
<path d="M31.7413 411.42V487.194H129.8V444.924H108.686C93.0525 444.892 78.0682 438.667 67.0135 427.612C55.9588 416.558 49.7342 401.573 49.7024 385.94V373.626C48.4774 374.627 47.3047 375.69 46.189 376.811C38.4344 384.544 33.4943 394.652 32.1572 405.521C31.8962 407.477 31.7573 409.447 31.7413 411.42Z" fill="#032A34"/>
<path d="M49.7022 366.337V385.962C49.7398 401.591 55.9669 416.57 67.021 427.62C78.0751 438.67 93.0561 444.892 108.686 444.924H143.032V487.249H241.036V422.781C234.868 426.095 227.991 427.87 220.99 427.955C213.989 428.041 207.07 426.435 200.823 423.274C193.569 419.617 187.468 414.024 183.197 407.114C178.926 400.204 176.651 392.246 176.623 384.123V366.337H49.6584H49.7022Z" fill="#153743"/>
<path d="M49.7021 286.469V366.37H176.667V310.779C176.662 302.82 178.843 295.014 182.971 288.21C161.472 297.114 137.854 299.596 114.973 295.358C92.0925 291.119 70.9305 280.341 54.0473 264.327C51.1742 271.356 49.6982 278.877 49.7021 286.469Z" fill="#C22F33"/>
<path d="M16.418 157.206V176.908C16.418 177.291 16.418 177.685 16.418 178.068C16.4845 184.605 17.0922 191.125 18.2349 197.561C23.2636 227.111 39.1341 253.722 62.7427 272.191C86.3513 290.66 116 299.658 145.891 297.426C175.783 295.194 203.766 281.892 224.37 260.122C244.974 238.351 256.716 209.678 257.301 179.71C257.301 178.768 257.301 177.816 257.301 176.864V157.163C252.685 157.163 248.259 155.329 244.995 152.065C241.731 148.802 239.898 144.375 239.898 139.76V96.2961H57.4407C47.5052 96.3135 37.7374 93.7366 29.1035 88.8206V144.554C29.1035 146.218 28.7751 147.866 28.1372 149.403C27.4993 150.94 26.5644 152.337 25.386 153.512C24.2076 154.687 22.8089 155.619 21.27 156.253C19.7311 156.887 18.0823 157.211 16.418 157.206Z" fill="#F3C09A"/>
<path d="M5.24264 136.542V181.22C5.24016 185.021 6.52215 188.711 8.88054 191.691C11.2389 194.671 14.5353 196.767 18.2346 197.638C17.0866 191.169 16.4788 184.616 16.4177 178.046C16.4177 177.663 16.4177 177.269 16.4177 176.886V120.704C13.1534 121.876 10.3294 124.025 8.32984 126.859C6.33029 129.692 5.25235 133.073 5.24264 136.542Z" fill="#F3C09A"/>
<g style="mix-blend-mode:multiply">
<g style="mix-blend-mode:multiply">
<path d="M12.992 146.841V170.921C12.9945 172.293 13.3079 173.648 13.9089 174.882C14.5098 176.116 15.3826 177.198 16.4617 178.046C16.4617 177.663 16.4617 177.269 16.4617 176.886V139.738C15.3825 140.581 14.5093 141.659 13.9082 142.89C13.3071 144.12 12.9938 145.472 12.992 146.841Z" fill="#E8B48D"/>
</g>
</g>
<path d="M174.127 178.922C162.134 178.922 152.412 169.199 152.412 157.206C152.412 145.213 162.134 135.491 174.127 135.491C186.12 135.491 195.843 145.213 195.843 157.206C195.843 169.199 186.12 178.922 174.127 178.922Z" fill="#F1F2F2"/>
<path d="M174.128 166.258C169.128 166.258 165.076 162.205 165.076 157.206C165.076 152.207 169.128 148.155 174.128 148.155C179.127 148.155 183.179 152.207 183.179 157.206C183.179 162.205 179.127 166.258 174.128 166.258Z" fill="#030304"/>
<path d="M157.086 121.131H190.961C196.003 121.131 200.09 125.215 200.09 130.254C200.09 135.292 196.003 139.377 190.961 139.377H157.086C152.044 139.377 147.958 135.292 147.958 130.254C147.958 125.215 152.044 121.131 157.086 121.131Z" fill="#030304"/>
<path d="M66.328 178.922C54.335 178.922 44.6127 169.199 44.6127 157.206C44.6127 145.213 54.335 135.491 66.328 135.491C78.3211 135.491 88.0433 145.213 88.0433 157.206C88.0433 169.199 78.3211 178.922 66.328 178.922Z" fill="#F1F2F2"/>
<path d="M66.3282 166.258C61.3291 166.258 57.2765 162.205 57.2765 157.206C57.2765 152.207 61.3291 148.155 66.3282 148.155C71.3273 148.155 75.3799 152.207 75.3799 157.206C75.3799 162.205 71.3273 166.258 66.3282 166.258Z" fill="#030304"/>
<path d="M83.6215 139.617L73.4425 139.475L49.7351 139.136C47.3179 139.098 45.0142 138.103 43.3296 136.369C41.6449 134.636 40.7169 132.304 40.7491 129.887C40.7894 127.47 41.7848 125.167 43.5177 123.481C45.2507 121.795 47.5803 120.864 49.9978 120.89L83.928 121.372C86.3443 121.412 88.6463 122.408 90.3303 124.141C92.0143 125.874 92.9433 128.204 92.9141 130.62C92.8955 131.821 92.6404 133.007 92.1632 134.11C91.686 135.212 90.9961 136.21 90.1331 137.045C89.27 137.881 88.2507 138.538 87.1333 138.979C86.016 139.421 84.8227 139.638 83.6215 139.617Z" fill="#030304"/>
<g style="mix-blend-mode:multiply">
<g style="mix-blend-mode:multiply">
<path d="M109.89 217.985C105.23 217.985 101.451 214.207 101.451 209.546C101.451 204.886 105.23 201.108 109.89 201.108C114.551 201.108 118.329 204.886 118.329 209.546C118.329 214.207 114.551 217.985 109.89 217.985Z" fill="#E8B48D"/>
</g>
<g style="mix-blend-mode:multiply">
<path d="M130.675 217.985C126.015 217.985 122.236 214.207 122.236 209.546C122.236 204.886 126.015 201.108 130.675 201.108C135.336 201.108 139.114 204.886 139.114 209.546C139.114 214.207 135.336 217.985 130.675 217.985Z" fill="#E8B48D"/>
</g>
</g>
<path d="M0.00012207 18.6178V38.8556C-0.0284424 53.9037 5.86964 68.358 16.418 79.0902V157.206C19.7737 157.206 22.9919 155.873 25.3648 153.5C27.7376 151.128 29.0707 147.909 29.0707 144.554V88.8205C37.7046 93.7366 47.4724 96.3135 57.4079 96.2961H239.941V139.803C239.941 144.419 241.775 148.845 245.039 152.109C248.302 155.373 252.729 157.206 257.344 157.206L256.983 89.6414L256.808 57.4625C256.811 49.9174 255.327 42.4457 252.442 35.4742C249.557 28.5026 245.326 22.1679 239.992 16.8317C234.658 11.4955 228.325 7.26252 221.354 4.3745C214.384 1.48647 206.913 -5.47903e-07 199.367 0H18.607C16.1626 -4.22909e-07 13.7421 0.481643 11.4839 1.41741C9.22572 2.35318 7.17404 3.72473 5.44609 5.4537C3.71814 7.18267 2.34778 9.23517 1.41335 11.4939C0.478912 13.7527 -0.00131226 16.1734 0.00012207 18.6178Z" fill="#030304"/>
<path d="M173.066 366.337H176.623V384.145C176.616 391.712 178.569 399.151 182.294 405.738C186.018 412.325 191.386 417.834 197.874 421.728C204.362 425.621 211.749 427.767 219.313 427.956C226.878 428.144 234.362 426.369 241.036 422.803V411.497C240.998 398.512 235.823 386.07 226.642 376.889C217.461 367.707 205.019 362.533 192.034 362.495C186.794 362.501 181.59 363.355 176.623 365.023C175.419 365.396 174.226 365.844 173.066 366.337Z" fill="#153743"/>
<path d="M176.623 350.992V384.145C176.623 395.769 181.241 406.918 189.461 415.137C197.68 423.357 208.829 427.975 220.453 427.975C232.078 427.975 243.226 423.357 251.446 415.137C259.666 406.918 264.283 395.769 264.283 384.145V350.992H176.623Z" fill="#F2BF99"/>
<path d="M176.623 310.779V350.992H264.283V310.779C264.255 299.171 259.634 288.047 251.432 279.834C243.229 271.621 232.11 266.987 220.503 266.943C217.396 266.94 214.299 267.274 211.265 267.939C201.474 270.066 192.704 275.472 186.404 283.262C180.105 291.053 176.654 300.76 176.623 310.779Z" fill="#C22F33"/>
<path d="M122.225 272.525C139.595 272.525 155.061 264.984 160.763 253.754C161.087 253.107 161.141 252.359 160.914 251.672C160.687 250.986 160.197 250.417 159.552 250.09C158.907 249.764 158.159 249.705 157.472 249.928C156.784 250.151 156.212 250.637 155.882 251.281C151.11 260.715 137.581 267.053 122.225 267.053C106.869 267.053 92.9467 260.431 88.4044 250.941C88.0909 250.287 87.5302 249.783 86.8457 249.542C86.1611 249.301 85.4088 249.342 84.7542 249.655C84.0996 249.969 83.5964 250.529 83.3552 251.214C83.114 251.898 83.1546 252.651 83.4681 253.305C88.9736 264.798 104.549 272.525 122.225 272.525Z" fill="#D6905B"/>
</g>
</svg>
