<svg width="229" height="390" viewBox="0 0 229 390" fill="none" xmlns="http://www.w3.org/2000/svg">
<path d="M12.7587 2H240.999C243.846 2 246.577 3.13111 248.59 5.14451C250.603 7.1579 251.735 9.88865 251.735 12.736V33.6741H2.02262V12.736C2.02262 9.88865 3.15374 7.1579 5.16713 5.14451C7.18053 3.13111 9.91128 2 12.7587 2V2Z" stroke="#132A43" stroke-width="4" stroke-linejoin="round"/>
<path d="M2.02272 33.6741H251.735V170.311C251.735 171.79 251.443 173.254 250.878 174.62C250.312 175.986 249.483 177.227 248.437 178.272C247.392 179.318 246.151 180.147 244.785 180.713C243.419 181.279 241.955 181.57 240.476 181.57H13.2586C10.2726 181.57 7.40898 180.384 5.29758 178.272C3.18617 176.161 2 173.297 2 170.311V33.6741H2.02272Z" stroke="#132A43" stroke-width="4" stroke-linejoin="round"/>
<path d="M34.1285 112.28C33.3095 112.55 32.5652 113.008 31.9554 113.618C31.3457 114.227 30.8876 114.972 30.618 115.791L20.3932 146.465L21.2112 147.272L37.3322 131.15C37.1838 130.709 37.0922 130.251 37.0596 129.787C37.0573 128.686 37.3819 127.608 37.9922 126.691C38.6026 125.774 39.4712 125.059 40.4882 124.636C41.5052 124.213 42.6249 124.101 43.7055 124.315C44.7861 124.528 45.779 125.057 46.5587 125.835C47.3384 126.614 47.8697 127.605 48.0854 128.686C48.3011 129.766 48.1916 130.886 47.7706 131.903C47.3496 132.921 46.6361 133.791 45.7204 134.404C44.8046 135.016 43.7279 135.343 42.6264 135.343C42.1614 135.317 41.7024 135.225 41.2631 135.07L25.1307 151.202L25.9487 152.02L56.623 141.796C57.4412 141.524 58.1846 141.066 58.7941 140.456C59.4036 139.847 59.8623 139.103 60.1335 138.285L65.8821 123.675L48.7045 106.509L34.1285 112.28ZM84.5026 68.0521L52.6921 102.703L69.7335 119.744L104.373 87.9337C119.085 74.8573 97.4426 53.4193 84.5026 68.0521Z" stroke="#132A43" stroke-width="3" stroke-linejoin="round"/>
<path d="M169.254 152.963L158.427 149.828C157.884 149.669 157.425 149.302 157.152 148.805C156.88 148.309 156.815 147.724 156.973 147.181L181.206 63.7009C181.364 63.157 181.732 62.6983 182.228 62.4256C182.725 62.1529 183.309 62.0885 183.853 62.2467L194.68 65.3823C195.224 65.5405 195.683 65.9083 195.955 66.4047C196.228 66.9011 196.292 67.4855 196.134 68.0294L171.901 151.509C171.824 151.779 171.695 152.031 171.519 152.251C171.344 152.471 171.127 152.653 170.881 152.788C170.635 152.924 170.365 153.009 170.085 153.039C169.806 153.069 169.524 153.043 169.254 152.963V152.963ZM149.021 133.048L156.735 124.811C156.931 124.604 157.084 124.359 157.184 124.092C157.284 123.824 157.329 123.539 157.316 123.254C157.303 122.969 157.233 122.689 157.11 122.431C156.987 122.174 156.813 121.944 156.598 121.755L140.511 107.588L156.598 93.4436C156.814 93.2557 156.989 93.026 157.113 92.7683C157.238 92.5107 157.308 92.2305 157.321 91.9448C157.334 91.6591 157.288 91.3737 157.188 91.106C157.087 90.8384 156.933 90.5939 156.735 90.3876L149.021 82.1509C148.828 81.9463 148.598 81.7816 148.342 81.6663C148.085 81.5509 147.809 81.4872 147.529 81.4788C147.248 81.4703 146.968 81.5173 146.706 81.6171C146.443 81.7168 146.203 81.8673 145.999 82.06L120.414 106.031C120.199 106.228 120.027 106.468 119.909 106.735C119.792 107.002 119.731 107.29 119.731 107.582C119.731 107.874 119.792 108.163 119.909 108.43C120.027 108.697 120.199 108.936 120.414 109.133L145.999 133.127C146.203 133.32 146.443 133.47 146.706 133.57C146.968 133.67 147.248 133.717 147.529 133.708C147.809 133.7 148.085 133.636 148.342 133.521C148.598 133.406 148.828 133.241 149.021 133.036V133.048ZM207.109 133.15L232.693 109.167C232.906 108.967 233.075 108.726 233.191 108.459C233.307 108.191 233.367 107.902 233.367 107.611C233.367 107.319 233.307 107.03 233.191 106.763C233.075 106.495 232.906 106.254 232.693 106.054L207.109 82.06C206.696 81.6722 206.147 81.463 205.581 81.4779C205.015 81.4928 204.478 81.7306 204.087 82.1396L196.361 90.3876C196.167 90.5952 196.017 90.8397 195.919 91.1066C195.821 91.3735 195.778 91.6572 195.792 91.9411C195.805 92.2251 195.876 92.5033 195.999 92.7594C196.122 93.0156 196.296 93.2444 196.509 93.4323L212.596 107.599L196.509 121.755C196.294 121.943 196.119 122.172 195.995 122.43C195.871 122.687 195.799 122.966 195.786 123.252C195.772 123.537 195.816 123.822 195.915 124.09C196.014 124.358 196.166 124.603 196.361 124.811L204.087 133.048C204.475 133.46 205.011 133.702 205.577 133.721C206.143 133.74 206.693 133.535 207.109 133.15V133.15Z" stroke="#132A43" stroke-width="3" stroke-linejoin="round"/>
<path d="M383.964 118.79V97.7835C383.964 92.6612 381.929 87.7487 378.307 84.1268C374.685 80.5048 369.772 78.47 364.65 78.47H251.734L250.598 170.323C250.598 173.504 248.269 178.423 248.269 178.423C246.173 180.451 243.37 181.584 240.453 181.581H115.813V203.814C111.618 204.38 107.77 206.445 104.98 209.628C102.19 212.811 100.646 216.896 100.635 221.128V267.481C100.648 272.033 102.435 276.402 105.617 279.658C108.799 282.914 113.125 284.802 117.676 284.92C122.838 313.857 138.029 340.05 160.582 358.901C183.135 377.751 211.608 388.054 241.002 388C270.395 387.946 298.83 377.538 321.313 358.604C343.797 339.67 358.891 313.421 363.946 284.465C367.776 283.563 371.191 281.396 373.638 278.315C376.084 275.233 377.421 271.416 377.431 267.481V221.128C377.422 217.716 376.414 214.382 374.533 211.535C372.651 208.689 369.978 206.455 366.843 205.11V160.575C377.826 149.442 383.978 134.429 383.964 118.79V118.79Z" stroke="#132A43" stroke-width="4" stroke-linejoin="round"/>
</svg>
