<svg width="227" height="386" viewBox="0 0 227 386" fill="none" xmlns="http://www.w3.org/2000/svg">
<g opacity="0.3">
<path d="M380.93 117.71V96.7037C380.93 91.5815 378.895 86.669 375.273 83.047C371.651 79.4251 366.739 77.3903 361.617 77.3903H249.735V168.277C249.735 169.757 249.443 171.222 248.877 172.588C248.31 173.955 247.48 175.197 246.433 176.242C245.386 177.288 244.144 178.117 242.777 178.682C241.409 179.247 239.944 179.537 238.465 179.536H113.813V201.769C109.605 202.328 105.742 204.396 102.944 207.589C100.146 210.782 98.6026 214.883 98.601 219.128V265.481C98.6149 270.049 100.415 274.43 103.616 277.689C106.817 280.948 111.166 282.825 115.733 282.92C120.895 311.857 136.086 338.05 158.639 356.901C181.192 375.751 209.665 386.054 239.059 386C268.452 385.946 296.887 375.538 319.37 356.604C341.854 337.67 356.948 311.421 362.003 282.465C365.833 281.563 369.248 279.396 371.695 276.315C374.141 273.233 375.478 269.416 375.488 265.481V219.128C375.476 215.524 374.352 212.012 372.27 209.07C370.188 206.128 367.249 203.9 363.855 202.689V159.518C374.827 148.372 380.963 133.35 380.93 117.71Z" fill="#F3C09A"/>
<path d="M10.7588 0H238.999C241.846 0 244.577 1.13111 246.59 3.1445C248.604 5.1579 249.735 7.88865 249.735 10.736V31.6741H0.0227432V10.736C0.0227432 9.32614 0.300438 7.93008 0.839973 6.62752C1.37951 5.32497 2.17032 4.14144 3.16725 3.1445C4.16418 2.14757 5.34771 1.35677 6.65027 0.81723C7.95282 0.277694 9.34889 0 10.7588 0Z" fill="#132A43"/>
<path d="M0.0227266 31.6741H249.735V168.311C249.735 169.79 249.443 171.254 248.878 172.62C248.312 173.986 247.483 175.227 246.437 176.272C245.392 177.318 244.15 178.147 242.785 178.713C241.419 179.279 239.955 179.57 238.476 179.57H11.2586C8.27265 179.57 5.40898 178.384 3.29758 176.272C1.18617 174.161 0 171.297 0 168.311V31.6741H0.0227266Z" fill="#5E85A1"/>
<path d="M32.1285 110.28C31.3103 110.551 30.5669 111.01 29.9574 111.619C29.3479 112.229 28.8892 112.972 28.618 113.791L18.3932 144.465L19.2112 145.272L35.3436 129.15C35.1952 128.709 35.1035 128.251 35.0709 127.787C35.0709 126.688 35.3968 125.614 36.0072 124.701C36.6176 123.787 37.4853 123.075 38.5004 122.655C39.5155 122.234 40.6326 122.124 41.7102 122.338C42.7879 122.553 43.7778 123.082 44.5547 123.859C45.3317 124.636 45.8608 125.626 46.0751 126.703C46.2895 127.781 46.1795 128.898 45.759 129.913C45.3385 130.928 44.6265 131.796 43.7129 132.406C42.7993 133.017 41.7252 133.343 40.6264 133.343C40.1651 133.317 39.7098 133.225 39.2745 133.07L23.142 149.202L23.9486 150.02L54.623 139.796C55.4412 139.524 56.1846 139.066 56.7941 138.456C57.4036 137.847 57.8623 137.103 58.1335 136.285L63.8821 121.675L46.7045 104.509L32.1285 110.28ZM82.548 66.0521L50.7376 100.703L67.7789 117.744L102.418 85.9337C117.085 72.8573 95.4426 51.4193 82.548 66.0521Z" fill="#C6767A"/>
<path d="M167.255 150.963L156.394 147.816C155.85 147.658 155.391 147.29 155.119 146.794C154.846 146.297 154.781 145.713 154.94 145.169L179.172 61.6895C179.331 61.1457 179.698 60.687 180.195 60.4143C180.691 60.1416 181.276 60.0772 181.819 60.2353L192.646 63.3709C193.19 63.5292 193.649 63.8969 193.922 64.3933C194.194 64.8897 194.259 65.4741 194.101 66.018L169.868 149.498C169.714 150.038 169.353 150.495 168.864 150.769C168.374 151.044 167.796 151.114 167.255 150.963ZM147.021 131.048L154.746 122.811C154.942 122.603 155.094 122.358 155.193 122.09C155.292 121.822 155.336 121.537 155.322 121.252C155.308 120.966 155.237 120.687 155.113 120.43C154.989 120.172 154.814 119.943 154.599 119.755L138.512 105.599L154.599 91.455C154.814 91.267 154.989 91.0375 155.113 90.7804C155.237 90.5232 155.308 90.2436 155.322 89.9583C155.336 89.6731 155.292 89.3879 155.193 89.12C155.094 88.852 154.942 88.6068 154.746 88.3989L147.021 80.1623C146.829 79.9576 146.598 79.793 146.342 79.6776C146.086 79.5623 145.81 79.4986 145.529 79.4901C145.248 79.4817 144.969 79.5287 144.706 79.6284C144.444 79.7282 144.203 79.8787 143.999 80.0714L118.414 104.043C118.202 104.242 118.033 104.482 117.917 104.748C117.802 105.015 117.742 105.303 117.742 105.594C117.742 105.884 117.802 106.172 117.917 106.439C118.033 106.705 118.202 106.946 118.414 107.144L143.999 131.139C144.203 131.331 144.444 131.482 144.706 131.581C144.969 131.681 145.248 131.728 145.529 131.72C145.81 131.711 146.086 131.648 146.342 131.532C146.598 131.417 146.829 131.252 147.021 131.048ZM205.109 131.15L230.694 107.167C230.909 106.969 231.082 106.729 231.199 106.461C231.317 106.193 231.378 105.903 231.378 105.611C231.378 105.318 231.317 105.029 231.199 104.761C231.082 104.493 230.909 104.252 230.694 104.054L205.109 80.06C204.697 79.6722 204.148 79.463 203.582 79.4779C203.016 79.4928 202.479 79.7306 202.087 80.1396L194.373 88.3876C194.177 88.5937 194.024 88.8374 193.925 89.104C193.825 89.3706 193.78 89.6546 193.793 89.939C193.806 90.2233 193.876 90.5022 193.999 90.7588C194.122 91.0154 194.296 91.2445 194.51 91.4323L210.596 105.599L194.51 119.755C194.294 119.943 194.119 120.173 193.994 120.43C193.87 120.688 193.8 120.968 193.787 121.254C193.774 121.54 193.819 121.825 193.92 122.093C194.021 122.36 194.175 122.605 194.373 122.811L202.087 131.048C202.476 131.46 203.011 131.702 203.577 131.721C204.143 131.74 204.694 131.535 205.109 131.15Z" fill="#132A43"/>
<path d="M114.041 179.57L113.711 239.635C118.502 239.635 123.097 237.732 126.484 234.344C129.872 230.957 131.775 226.362 131.775 221.571V179.536L114.041 179.57Z" fill="#030304"/>
</g>
</svg>
